Coordinates
version=1
nRows=11
nColumns=46
inDegrees=yes

Units are S.I. units (second, meters, Newtons, ...)
Angles are in degrees.

endheader
time	pelvis_tilt	pelvis_list	pelvis_rotation	pelvis_tx	pelvis_ty	pelvis_tz	bb_angle	bb_tx	bb_ty	bb_tz	hip_flexion_r	hip_adduction_r	hip_rotation_r	knee_angle_r	knee_angle_r_beta	ankle_angle_r	subtalar_angle_r	mtp_angle_r	crank_angle_r	hip_flexion_l	hip_adduction_l	hip_rotation_l	knee_angle_l	knee_angle_l_beta	ankle_angle_l	subtalar_angle_l	mtp_angle_l	crank_angle_l	lumbar_extension	lumbar_bending	lumbar_rotation	arm_flex_r	arm_add_r	arm_rot_r	elbow_flex_r	pro_sup_r	wrist_flex_r	wrist_dev_r	arm_flex_l	arm_add_l	arm_rot_l	elbow_flex_l	pro_sup_l	wrist_flex_l	wrist_dev_l
      7.50500000	    -23.29069393	      6.22047864	      3.83987149	      0.15731589	      1.12464915	     -0.21876776	      0.00000000	      0.50000000	      0.00000000	      0.25000000	     43.89966461	    -10.32001834	      1.79231611	     28.51497456	      0.49768019	    -18.63410981	    -10.33928111	      0.00000000	      0.00000000	     94.74669037	      1.49042372	      1.98306619	    102.90866745	      1.79609508	     12.10690429	     -0.56409224	      0.00000000	      0.00000000	    -48.16272056	     -4.33127236	     -8.84297610	     89.59466744	     -3.87441414	     46.07952548	     24.44074720	     26.31500932	      0.00000000	      0.00000000	     89.80084007	     -6.34406298	     41.64201997	     31.78842232	     23.08717877	      0.00000000	      0.00000000
      7.51000000	    -23.22515134	      6.06301351	      3.67409019	      0.15687896	      1.12540321	     -0.21863758	      0.00000000	      0.50000000	      0.00000000	      0.25000000	     44.02078820	    -10.01419897	      2.15605397	     29.99522612	      0.52351546	    -17.77316429	    -10.94661190	      0.00000000	      0.00000000	     94.69923637	      1.46492957	      2.16794740	    101.77875207	      1.77637433	     11.91282586	     -0.76335376	      0.00000000	      0.00000000	    -48.27196451	     -4.27332760	     -8.63102907	     89.61244623	     -3.83931298	     46.02059097	     24.50840363	     26.29883478	      0.00000000	      0.00000000	     89.80371780	     -6.37783707	     41.55450450	     31.83824773	     23.04551460	      0.00000000	      0.00000000
      7.51500000	    -23.28587660	      5.92767534	      3.50384483	      0.15636979	      1.12588684	     -0.21862839	      0.00000000	      0.50000000	      0.00000000	      0.25000000	     44.41082998	     -9.73916410	      2.52815410	     31.64809276	      0.55236342	    -16.86511918	    -11.26780979	      0.00000000	      0.00000000	     94.70358858	      1.45491920	      2.34069889	    100.57900058	      1.75543472	     11.66719869	     -1.06171660	      0.00000000	      0.00000000	    -48.28806526	     -4.20258475	     -8.37793594	     89.61008215	     -4.00499021	     45.53268059	     25.11164669	     26.58055337	      0.00000000	      0.00000000	     89.80412219	     -6.63963470	     41.01420005	     32.34715125	     23.39788400	      0.00000000	      0.00000000
      7.52000000	    -23.22136498	      5.84269668	      3.28127809	      0.15583991	      1.12654611	     -0.21839219	      0.00000000	      0.50000000	      0.00000000	      0.25000000	     44.76018410	     -9.41871412	      3.01849326	     33.44846659	      0.58378587	    -16.02110350	    -12.13026003	      0.00000000	      0.00000000	     94.45181618	      1.40788500	      2.46538739	     99.24424885	      1.73213891	     11.37757297	     -1.52609195	      0.00000000	      0.00000000	    -48.45743613	     -4.25404901	     -8.19904161	     89.60406529	     -3.83993323	     44.07895712	     25.47743113	     26.69252750	      0.00000000	      0.00000000	     89.80232149	     -6.51009819	     39.93489580	     32.63788176	     23.56727068	      0.00000000	      0.00000000
      7.52500000	    -23.32915450	      5.80596887	      3.15283641	      0.15523626	      1.12671513	     -0.21863894	      0.00000000	      0.50000000	      0.00000000	      0.25000000	     45.44752644	     -9.31221072	      3.29857899	     35.51564384	      0.61986492	    -14.67251544	    -11.88570425	      0.00000000	      0.00000000	     94.33308604	      1.52490438	      2.54875858	     97.87592942	      1.70825723	     10.91009544	     -2.20517068	      0.00000000	      0.00000000	    -48.30323321	     -4.25674956	     -8.09983305	     89.62047694	     -3.51947090	     43.82737587	     24.98868592	     26.70449691	      0.00000000	      0.00000000	     89.80452958	     -6.37943816	     39.74235755	     32.23941383	     23.58642428	      0.00000000	      0.00000000
      7.53000000	    -23.23349828	      5.54859679	      2.94199774	      0.15469743	      1.12727804	     -0.21864075	      0.00000000	      0.50000000	      0.00000000	      0.25000000	     45.77253754	     -8.84894977	      3.71384716	     37.28773100	      0.65079368	    -13.76541426	    -12.48093016	      0.00000000	      0.00000000	     93.95123409	      1.46895077	      2.83442710	     96.49146494	      1.68409376	     10.60448965	     -2.44753397	      0.00000000	      0.00000000	    -48.46895893	     -4.10616030	     -7.82478274	     89.62365710	     -3.61347780	     43.45579800	     25.59847567	     26.93820163	      0.00000000	      0.00000000	     89.80400192	     -6.57403955	     39.38712657	     32.69219119	     23.86635465	      0.00000000	      0.00000000
      7.53500000	    -23.18964958	      5.32915101	      2.76349901	      0.15424893	      1.12762850	     -0.21854394	      0.00000000	      0.50000000	      0.00000000	      0.25000000	     46.31420708	     -8.48977660	      3.99082349	     39.33084288	      0.68645271	    -12.77998037	    -12.75198768	      0.00000000	      0.00000000	     93.54943668	      1.39389446	      3.03296995	     95.05231631	      1.65897588	     10.20225438	     -2.93530382	      0.00000000	      0.00000000	    -48.47284612	     -3.99248023	     -7.54080921	     89.63451424	     -3.32686452	     42.95018557	     25.20018317	     27.34031566	      0.00000000	      0.00000000	     89.80654658	     -6.43356824	     39.16358631	     32.26830801	     24.33517011	      0.00000000	      0.00000000
      7.54000000	    -23.05631362	      5.10839861	      2.56794625	      0.15378674	      1.12809994	     -0.21838072	      0.00000000	      0.50000000	      0.00000000	      0.25000000	     46.79234000	     -8.10002729	      4.27554301	     41.38161391	      0.72224541	    -11.83355944	    -13.06274910	      0.00000000	      0.00000000	     92.98390584	      1.31299059	      3.26122597	     93.57400173	      1.63317442	      9.84603197	     -3.24294041	      0.00000000	      0.00000000	    -48.61558530	     -3.86035867	     -7.24540979	     89.64052230	     -3.11853464	     42.15587835	     25.18553109	     27.79613390	      0.00000000	      0.00000000	     89.80811315	     -6.41073335	     38.76982132	     32.19874308	     24.69217111	      0.00000000	      0.00000000
      7.54500000	    -22.81554354	      4.72467485	      2.34975263	      0.15348727	      1.12837917	     -0.21853378	      0.00000000	      0.50000000	      0.00000000	      0.25000000	     47.12664686	     -7.54321193	      4.56876843	     43.40659019	      0.75758792	    -11.13185976	    -13.55614087	      0.00000000	      0.00000000	     92.30451460	      1.21717943	      3.66857863	     92.16582846	      1.60859716	      9.58915576	     -3.39301138	      0.00000000	      0.00000000	    -48.81024287	     -3.55669371	     -6.85234662	     89.65716994	     -3.06271171	     42.21854439	     25.29996656	     27.78638503	      0.00000000	      0.00000000	     89.80739145	     -6.54308219	     38.76981690	     32.24939036	     24.64487214	      0.00000000	      0.00000000
      7.55000000	    -22.62530146	      4.37744506	      2.08881295	      0.15313718	      1.12868174	     -0.21863571	      0.00000000	      0.50000000	      0.00000000	      0.25000000	     47.57074154	     -7.01357895	      4.83889018	     45.40631628	      0.79248972	    -10.43671546	    -13.93284968	      0.00000000	      0.00000000	     91.56697462	      1.17746780	      4.15570690	     90.65167296	      1.58217017	      9.35408641	     -3.61178620	      0.00000000	      0.00000000	    -49.00202144	     -3.32854805	     -6.42266917	     89.66234783	     -2.99442310	     42.25521862	     25.41568105	     27.78163150	      0.00000000	      0.00000000	     89.80862013	     -6.66553823	     38.75246512	     32.28636182	     24.60784468	      0.00000000	      0.00000000
      7.55500000	    -22.56176993	      4.24595504	      1.94703194	      0.15266724	      1.12835953	     -0.21894327	      0.00000000	      0.50000000	      0.00000000	      0.25000000	     48.39182543	     -6.85607406	      4.91362585	     47.85730971	      0.83526763	     -8.94017195	    -13.48212984	      0.00000000	      0.00000000	     90.96234798	      1.13783560	      4.17283391	     89.12356362	      1.55549963	      8.67826735	     -4.56539603	      0.00000000	      0.00000000	    -49.01821290	     -3.27206482	     -6.28336397	     89.66226876	     -3.26321462	     42.52257118	     25.96742638	     27.42414801	      0.00000000	      0.00000000	     89.80899639	     -6.88734715	     39.35212640	     32.66338596	     23.86399805	      0.00000000	      0.00000000
